<svg width="21" height="24" viewBox="0 0 21 24" fill="none" xmlns="http://www.w3.org/2000/svg">
<path d="M20.0795 17.1562C20.4959 17.625 20.7273 18.1875 20.7273 18.7969C20.7273 19.4062 20.4959 19.9219 20.0795 20.3438C19.6631 20.8125 19.1542 21 18.5065 21H13.3247C13.3247 21.8438 13.0008 22.5469 12.4456 23.1094C11.8442 23.7188 11.1502 24 10.3636 24C9.53084 24 8.83685 23.7188 8.28165 23.1094C7.68019 22.5469 7.4026 21.8438 7.4026 21H2.22078C1.57305 21 1.01786 20.8125 0.601461 20.3438C0.185065 19.9219 0 19.4062 0 18.7969C0 18.1875 0.231331 17.625 0.693993 17.1562C1.15666 16.6875 1.48052 16.2656 1.71185 15.8906C2.08198 15.3281 2.35958 14.5781 2.59091 13.6875C2.82224 12.6562 2.96104 11.3438 2.96104 9.75C2.96104 8.53125 3.19237 7.40625 3.74756 6.32812C4.30276 5.29688 5.04302 4.40625 5.96834 3.70312C6.89367 3 7.95779 2.53125 9.16071 2.34375C8.97565 2.10938 8.88312 1.82812 8.88312 1.5C8.88312 1.125 9.02191 0.75 9.29951 0.46875C9.57711 0.1875 9.94724 0 10.3636 0C10.7338 0 11.1039 0.1875 11.3815 0.46875C11.6591 0.75 11.8442 1.125 11.8442 1.5C11.8442 1.82812 11.7516 2.10938 11.5666 2.34375C12.7232 2.53125 13.7873 3 14.7127 3.70312C15.638 4.40625 16.3782 5.29688 16.9334 6.32812C17.4886 7.40625 17.7662 8.53125 17.7662 9.75C17.7662 11.3438 17.8588 12.6562 18.1364 13.6875C18.3214 14.5781 18.6453 15.3281 19.0154 15.8906C19.2005 16.2656 19.5706 16.6875 20.0795 17.1562ZM10.3636 22.5C10.7338 22.5 11.1039 22.3594 11.3815 22.0781C11.6591 21.7969 11.8442 21.4219 11.8442 21H8.88312C8.88312 21.4219 9.02191 21.7969 9.29951 22.0781C9.57711 22.3594 9.94724 22.5 10.3636 22.5ZM18.5065 19.5C18.8304 19.5 19.0617 19.3594 19.2005 19.0312C19.293 18.75 19.2468 18.4688 19.0154 18.2344C18.0901 17.2969 17.3961 16.3125 17.026 15.2344C16.517 13.9219 16.2857 12.0938 16.2857 9.75C16.2857 8.67188 16.0081 7.6875 15.4992 6.75C14.944 5.8125 14.25 5.10938 13.3247 4.54688C12.3993 4.03125 11.4278 3.75 10.3636 3.75C9.25325 3.75 8.28166 4.03125 7.35633 4.54688C6.43101 5.10938 5.73701 5.8125 5.22808 6.75C4.67289 7.6875 4.44156 8.67188 4.44156 9.75C4.44156 12.0938 4.16396 13.9219 3.65503 15.2344C3.2849 16.3125 2.63718 17.2969 1.71185 18.2344C1.43425 18.4688 1.38799 18.75 1.52679 19.0312C1.61932 19.3594 1.85065 19.5 2.22078 19.5H18.5065Z" fill="#212121"/>
</svg>
