<svg width="20" height="20" viewBox="0 0 20 20" fill="none" xmlns="http://www.w3.org/2000/svg">
<path d="M20 17.2222C20 18.7778 18.7778 20 17.2222 20H2.77778C1.22222 20 0 18.7778 0 17.2222V2.77778C0 1.22222 1.22222 0 2.77778 0H17.2222C18.7778 0 20 1.22222 20 2.77778V17.2222Z" fill="#90CAF9"/>
<path d="M4.44434 5H15.5554V6.11111H4.44434V5ZM13.3332 7.22222H4.44434V8.33333H13.3332V7.22222ZM4.44434 10.5556H15.5554V9.44444H4.44434V10.5556ZM4.44434 12.7778H13.3332V11.6667H4.44434V12.7778ZM4.44434 15H15.5554V13.8889H4.44434V15Z" fill="#1976D2"/>
</svg>
