<svg width="10" height="14" viewBox="0 0 10 14" fill="none" xmlns="http://www.w3.org/2000/svg">
<path d="M5.48438 1.23438C5.48438 1.74219 5.66211 2.25 6.01758 2.73242C6.2207 3.03711 6.60156 3.44336 7.21094 3.97656C7.74414 4.48438 8.15039 4.89062 8.4043 5.16992C8.81055 5.67773 9.14062 6.16016 9.36914 6.66797C9.62305 7.32812 9.75 8.01367 9.75 8.75C9.75 9.63867 9.52148 10.4512 9.08984 11.1875C8.63281 11.9492 8.04883 12.5332 7.3125 12.9648C6.55078 13.4219 5.73828 13.625 4.875 13.625C3.98633 13.625 3.17383 13.4219 2.4375 12.9648C1.67578 12.5332 1.0918 11.9492 0.660156 11.1875C0.203125 10.4512 0 9.63867 0 8.75C0 7.96289 0.177734 7.20117 0.558594 6.49023C0.914062 5.7793 1.42188 5.19531 2.08203 4.73828C2.28516 4.61133 2.48828 4.61133 2.7168 4.71289C2.91992 4.83984 3.04688 5.01758 3.04688 5.24609V7.9375C3.04688 8.24219 3.12305 8.4707 3.32617 8.67383C3.5293 8.87695 3.75781 8.95312 4.0625 8.95312C4.3418 8.95312 4.57031 8.87695 4.77344 8.67383C4.97656 8.4707 5.07812 8.24219 5.07812 7.9375C5.07812 7.78516 5.00195 7.58203 4.90039 7.35352C4.82422 7.20117 4.69727 6.97266 4.51953 6.64258C4.13867 6.0332 3.88477 5.55078 3.73242 5.19531C3.47852 4.56055 3.40234 3.92578 3.45312 3.29102C3.5293 2.5293 3.83398 1.7168 4.36719 0.904297C4.46875 0.751953 4.5957 0.650391 4.77344 0.625C4.95117 0.625 5.10352 0.675781 5.25586 0.777344C5.4082 0.904297 5.48438 1.05664 5.48438 1.23438ZM4.875 12.8125C5.58594 12.8125 6.27148 12.6348 6.90625 12.2793C7.51562 11.9238 8.02344 11.416 8.37891 10.7812C8.73438 10.1719 8.9375 9.48633 8.9375 8.75C8.9375 8.14062 8.81055 7.55664 8.60742 7.02344C8.42969 6.61719 8.17578 6.18555 7.82031 5.75391C7.5918 5.5 7.23633 5.16992 6.7793 4.71289C6.16992 4.1543 5.73828 3.69727 5.50977 3.36719C5.10352 2.83398 4.84961 2.25 4.74805 1.64062C4.39258 2.25 4.18945 2.85938 4.18945 3.44336C4.18945 3.92578 4.29102 4.4082 4.49414 4.91602C4.62109 5.2207 4.84961 5.65234 5.17969 6.18555C5.4082 6.5918 5.56055 6.89648 5.66211 7.07422C5.81445 7.4043 5.89062 7.68359 5.89062 7.9375C5.89062 8.44531 5.71289 8.87695 5.35742 9.23242C5.00195 9.58789 4.57031 9.76562 4.0625 9.76562C3.55469 9.76562 3.12305 9.58789 2.76758 9.23242C2.41211 8.87695 2.23438 8.44531 2.23438 7.9375V5.5C1.77734 5.88086 1.44727 6.36328 1.19336 6.94727C0.939453 7.55664 0.8125 8.14062 0.8125 8.75C0.8125 9.48633 0.990234 10.1719 1.3457 10.7812C1.70117 11.416 2.20898 11.9238 2.84375 12.2793C3.45312 12.6348 4.13867 12.8125 4.875 12.8125Z" fill="#FF8330"/>
</svg>
