<svg width="13" height="14" viewBox="0 0 13 14" fill="none" xmlns="http://www.w3.org/2000/svg">
<path d="M10.9434 8.57227C11.6543 8.77539 12.1875 9.18164 12.5684 9.79102C12.8477 10.2734 13 10.7812 13 11.2891V12C13 12.457 12.8223 12.8379 12.5176 13.1426C12.1875 13.4727 11.8066 13.625 11.375 13.625H1.625C1.16797 13.625 0.787109 13.4727 0.482422 13.1426C0.152344 12.8379 0 12.457 0 12V11.2891C0 10.7812 0.126953 10.2734 0.431641 9.76562C0.787109 9.18164 1.3457 8.77539 2.05664 8.57227L3.30078 8.2168C2.79297 7.70898 2.4375 7.09961 2.23438 6.41406C2.08203 5.98242 2.03125 5.55078 2.03125 5.09375C2.03125 4.28125 2.20898 3.54492 2.61523 2.85938C3.02148 2.17383 3.55469 1.64062 4.24023 1.23438C4.92578 0.828125 5.6875 0.625 6.5 0.625C7.3125 0.625 8.04883 0.828125 8.73438 1.23438C9.41992 1.64062 9.95312 2.17383 10.3594 2.85938C10.7656 3.54492 10.9688 4.28125 10.9688 5.09375C10.9688 5.55078 10.8926 5.98242 10.7656 6.41406C10.5625 7.09961 10.207 7.70898 9.69922 8.2168L10.9434 8.57227ZM6.5 1.4375C5.83984 1.4375 5.23047 1.61523 4.67188 1.94531C4.11328 2.27539 3.65625 2.70703 3.32617 3.26562C2.99609 3.82422 2.84375 4.43359 2.84375 5.09375C2.84375 5.75391 2.99609 6.36328 3.32617 6.92188C3.65625 7.48047 4.11328 7.9375 4.67188 8.26758C5.23047 8.59766 5.83984 8.75 6.5 8.75C7.16016 8.75 7.76953 8.59766 8.32812 8.26758C8.88672 7.9375 9.31836 7.48047 9.64844 6.92188C9.97852 6.36328 10.1562 5.75391 10.1562 5.09375C10.1562 4.43359 9.97852 3.82422 9.64844 3.26562C9.31836 2.70703 8.88672 2.27539 8.32812 1.94531C7.76953 1.61523 7.16016 1.4375 6.5 1.4375ZM12.1875 12V11.2891C12.1875 10.8574 12.0352 10.4512 11.7812 10.0957C11.502 9.74023 11.1465 9.48633 10.7148 9.33398L8.9375 8.82617C8.17578 9.33398 7.36328 9.5625 6.5 9.5625C5.61133 9.5625 4.79883 9.33398 4.0625 8.82617L2.28516 9.33398C1.82812 9.48633 1.47266 9.74023 1.21875 10.0957C0.939453 10.4512 0.8125 10.8574 0.8125 11.2891V12C0.8125 12.2285 0.888672 12.4316 1.04102 12.584C1.19336 12.7363 1.39648 12.8125 1.625 12.8125H11.375C11.5781 12.8125 11.7812 12.7363 11.9336 12.584C12.0859 12.4316 12.1875 12.2285 12.1875 12Z" fill="#0066FF"/>
</svg>
