<svg width="17" height="14" viewBox="0 0 17 14" fill="none" xmlns="http://www.w3.org/2000/svg">
<path d="M8.4375 0.8125C9.96094 0.8125 11.3672 1.10547 12.6562 1.63281C13.9453 2.18945 14.9707 2.92188 15.7324 3.85938C16.4941 4.79688 16.875 5.79297 16.875 6.90625C16.875 8.01953 16.4941 9.04492 15.7324 9.98242C14.9707 10.9199 13.9453 11.6523 12.6562 12.1797C11.3672 12.7363 9.96094 13 8.4375 13C7.44141 13 6.47461 12.8828 5.56641 12.6484C4.18945 13.3809 2.63672 13.8203 0.908203 13.9375C0.644531 13.9668 0.439453 13.9082 0.263672 13.7617C0.0878906 13.6152 0 13.4395 0 13.2051C0 13 0.117188 12.7949 0.380859 12.5898L0.615234 12.4434C0.966797 12.209 1.20117 12.0039 1.37695 11.8281C1.61133 11.5645 1.78711 11.2129 1.93359 10.7734C1.28906 10.2461 0.820312 9.66016 0.498047 8.98633C0.146484 8.3418 0 7.63867 0 6.90625C0 5.79297 0.380859 4.79688 1.14258 3.85938C1.9043 2.92188 2.92969 2.18945 4.21875 1.63281C5.50781 1.10547 6.91406 0.8125 8.4375 0.8125ZM8.4375 12.0625C9.78516 12.0625 11.0156 11.8281 12.1875 11.3594C13.3301 10.8906 14.2383 10.2754 14.9121 9.48438C15.5859 8.69336 15.9375 7.84375 15.9375 6.90625C15.9375 5.99805 15.5859 5.14844 14.9121 4.35742C14.2383 3.56641 13.3301 2.92188 12.1875 2.45312C11.0156 1.98438 9.78516 1.75 8.4375 1.75C7.08984 1.75 5.83008 1.98438 4.6875 2.45312C3.51562 2.92188 2.60742 3.56641 1.93359 4.35742C1.25977 5.14844 0.9375 5.99805 0.9375 6.90625C0.9375 7.60938 1.11328 8.25391 1.52344 8.86914C1.875 9.45508 2.34375 9.95312 2.95898 10.4219C2.8418 11.0371 2.66602 11.5352 2.40234 11.916C2.10938 12.3555 1.61133 12.7949 0.9375 13.2344C2.43164 13.0586 3.92578 12.502 5.44922 11.623C6.38672 11.916 7.38281 12.0625 8.4375 12.0625Z" fill="#B4B7BB"/>
</svg>
