<svg width="17" height="17" viewBox="0 0 17 17" fill="none" xmlns="http://www.w3.org/2000/svg">
<path fill-rule="evenodd" clip-rule="evenodd" d="M8.5 0C7.7176 0 7.08333 0.634263 7.08333 1.41667V7.08333H1.41667C0.634264 7.08333 0 7.7176 0 8.5C0 9.2824 0.634264 9.91667 1.41667 9.91667H7.08333V15.5833C7.08333 16.3657 7.7176 17 8.5 17C9.2824 17 9.91667 16.3657 9.91667 15.5833V9.91667H15.5833C16.3657 9.91667 17 9.2824 17 8.5C17 7.7176 16.3657 7.08333 15.5833 7.08333H9.91667V1.41667C9.91667 0.634263 9.2824 0 8.5 0Z" fill="#23B883"/>
</svg>
