<svg width="17" height="12" viewBox="0 0 17 12" fill="none" xmlns="http://www.w3.org/2000/svg">
<path d="M11.375 3.89062C12.2383 3.89062 13.0508 3.99219 13.8125 4.19531C14.5488 4.39844 15.1328 4.67773 15.5898 5.00781C16.0215 5.36328 16.25 5.71875 16.25 6.125C16.25 6.53125 16.0215 6.91211 15.5898 7.24219C15.1328 7.59766 14.5488 7.85156 13.8125 8.05469C13.0508 8.25781 12.2383 8.35938 11.375 8.35938C10.3086 8.35938 9.36914 8.48633 8.60742 8.68945C7.94727 8.86719 7.33789 9.12109 6.83008 9.45117C6.5 9.6543 6.09375 9.98438 5.61133 10.416C5.05273 10.8984 4.62109 11.2285 4.31641 11.3809C3.75781 11.6855 3.14844 11.8125 2.4375 11.8125H2.03125C1.67578 11.8125 1.39648 11.6602 1.16797 11.3555C0.914062 11.0508 0.8125 10.6445 0.8125 10.1875V8.5625C0.253906 8.5625 0 8.35938 0 7.95312V4.29688C0 3.89062 0.253906 3.6875 0.8125 3.6875V2.0625C0.8125 1.60547 0.914062 1.22461 1.16797 0.919922C1.39648 0.615234 1.67578 0.4375 2.03125 0.4375H2.4375C3.14844 0.4375 3.75781 0.589844 4.31641 0.869141C4.62109 1.04688 5.05273 1.37695 5.61133 1.83398C6.09375 2.29102 6.5 2.5957 6.83008 2.79883C7.33789 3.1543 7.94727 3.4082 8.60742 3.56055C9.36914 3.78906 10.3086 3.89062 11.375 3.89062ZM7.51562 3.89062C7.05859 3.78906 6.60156 3.58594 6.19531 3.30664C5.94141 3.1543 5.58594 2.875 5.12891 2.46875C4.72266 2.16406 4.44336 1.93555 4.24023 1.7832C3.88477 1.55469 3.55469 1.40234 3.25 1.32617V3.6875C3.58008 3.6875 3.91016 3.76367 4.21484 3.89062H7.51562ZM3.22461 7.75C3.68164 7.75 4.0625 7.59766 4.39258 7.29297C4.69727 6.98828 4.875 6.60742 4.875 6.15039C4.875 5.69336 4.69727 5.3125 4.39258 4.98242C4.08789 4.67773 3.70703 4.5 3.25 4.5H1.625V5.71875H2.84375C3.04688 5.71875 3.25 5.76953 3.40234 5.8457C3.55469 5.92188 3.65625 6.02344 3.65625 6.125C3.65625 6.25195 3.55469 6.35352 3.40234 6.42969C3.25 6.50586 3.04688 6.53125 2.84375 6.53125H1.625V7.75H3.22461ZM1.625 2.0625V3.6875H2.4375V1.25H2.03125C1.92969 1.25 1.85352 1.32617 1.75195 1.47852C1.65039 1.63086 1.625 1.83398 1.625 2.0625ZM1.625 10.1875C1.625 10.4414 1.65039 10.6191 1.75195 10.7715C1.85352 10.9238 1.92969 11 2.03125 11H2.4375V8.5625H1.625V10.1875ZM3.25 10.9238C3.55469 10.873 3.88477 10.7207 4.24023 10.4668C4.44336 10.3398 4.72266 10.1113 5.12891 9.78125C5.58594 9.40039 5.94141 9.12109 6.19531 8.94336C6.60156 8.68945 7.05859 8.48633 7.51562 8.35938H4.21484C3.91016 8.51172 3.58008 8.5625 3.25 8.5625V10.9238ZM11.375 7.54688C12.0859 7.54688 12.6445 7.52148 13.0254 7.4707C13.6348 7.39453 14.168 7.2168 14.625 6.9375V5.3125C14.168 5.05859 13.6348 4.88086 13.0254 4.7793C12.6445 4.72852 12.0859 4.70312 11.375 4.70312H5.23047C5.53516 5.13477 5.6875 5.61719 5.6875 6.125C5.6875 6.6582 5.53516 7.14062 5.23047 7.54688H11.375ZM12.3906 7.14062C12.6445 7.14062 12.8223 6.98828 12.9238 6.63281C13.0254 6.30273 13.0254 5.97266 12.9238 5.61719C12.8223 5.28711 12.6445 5.10938 12.3906 5.10938C12.3398 5.10938 12.2891 5.13477 12.2383 5.18555C12.1875 5.23633 12.1875 5.26172 12.1875 5.3125V6.9375C12.1875 6.98828 12.1875 7.03906 12.2383 7.08984C12.2891 7.14062 12.3398 7.14062 12.3906 7.14062Z" fill="#32C979"/>
</svg>
