<svg width="20" height="19" viewBox="0 0 20 19" fill="none" xmlns="http://www.w3.org/2000/svg">
<path d="M7.96875 14.8125C8.04688 14.7344 8.125 14.6172 8.125 14.5C8.125 14.3828 8.04688 14.2656 7.96875 14.1484L7.69531 13.875C7.61719 13.7969 7.5 13.7188 7.38281 13.7188C7.22656 13.7188 7.10938 13.7969 7.03125 13.875L5.03906 15.9062V1.21875C5.03906 1.10156 4.96094 0.984375 4.88281 0.90625C4.80469 0.828125 4.6875 0.75 4.57031 0.75H4.17969C4.02344 0.75 3.90625 0.828125 3.82812 0.90625C3.75 0.984375 3.71094 1.10156 3.71094 1.21875V15.9062L1.71875 13.875C1.60156 13.7969 1.48438 13.7188 1.36719 13.7188C1.21094 13.7188 1.13281 13.7969 1.05469 13.875L0.78125 14.1484C0.664062 14.2656 0.625 14.3828 0.625 14.5C0.625 14.6172 0.664062 14.7344 0.78125 14.8125L4.0625 18.0938C4.14062 18.2109 4.21875 18.25 4.375 18.25C4.49219 18.25 4.60938 18.2109 4.6875 18.0938L7.96875 14.8125ZM15 11.5312C15 11.6875 14.9219 11.8047 14.8438 11.8828C14.7656 11.9609 14.6484 12 14.5312 12H10.4688C10.3125 12 10.1953 11.9609 10.1172 11.8828C10.0391 11.8047 10 11.6875 10 11.5312V11.2188C10 11.1016 10.0391 10.9844 10.1172 10.9062C10.1953 10.8281 10.3125 10.75 10.4688 10.75H14.5312C14.6484 10.75 14.7656 10.8281 14.8438 10.9062C14.9219 10.9844 15 11.1016 15 11.2188V11.5312ZM17.5 7.78125C17.5 7.9375 17.4219 8.05469 17.3438 8.13281C17.2656 8.21094 17.1484 8.25 17.0312 8.25H10.4688C10.3125 8.25 10.1953 8.21094 10.1172 8.13281C10.0391 8.05469 10 7.9375 10 7.78125V7.46875C10 7.35156 10.0391 7.23438 10.1172 7.15625C10.1953 7.07812 10.3125 7 10.4688 7H17.0312C17.1484 7 17.2656 7.07812 17.3438 7.15625C17.4219 7.23438 17.5 7.35156 17.5 7.46875V7.78125ZM20 4.03125C20 4.1875 19.9219 4.30469 19.8438 4.38281C19.7656 4.46094 19.6484 4.5 19.5312 4.5H10.4688C10.3125 4.5 10.1953 4.46094 10.1172 4.38281C10.0391 4.30469 10 4.1875 10 4.03125V3.71875C10 3.60156 10.0391 3.48438 10.1172 3.40625C10.1953 3.32812 10.3125 3.25 10.4688 3.25H19.5312C19.6484 3.25 19.7656 3.32812 19.8438 3.40625C19.9219 3.48438 20 3.60156 20 3.71875V4.03125ZM12.5 15.2812C12.5 15.4375 12.4219 15.5547 12.3438 15.6328C12.2656 15.7109 12.1484 15.75 12.0312 15.75H10.4688C10.3125 15.75 10.1953 15.7109 10.1172 15.6328C10.0391 15.5547 10 15.4375 10 15.2812V14.9688C10 14.8516 10.0391 14.7344 10.1172 14.6562C10.1953 14.5781 10.3125 14.5 10.4688 14.5H12.0312C12.1484 14.5 12.2656 14.5781 12.3438 14.6562C12.4219 14.7344 12.5 14.8516 12.5 14.9688V15.2812Z" fill="#93979B"/>
</svg>
