<svg width="22" height="20" viewBox="0 0 22 20" fill="none" xmlns="http://www.w3.org/2000/svg">
<path fill-rule="evenodd" clip-rule="evenodd" d="M15.5672 1.04454C16.9784 -0.347912 19.2684 -0.348422 20.6807 1.04446L20.6808 1.04454C22.0919 2.43684 22.092 4.69474 20.6807 6.08664L20.3147 5.72567L20.6807 6.08665L7.93384 18.6579C6.11936 20.4474 3.17627 20.4473 1.36135 18.6579C-0.453686 16.8684 -0.453686 13.9646 1.36077 12.1751L1.36078 12.1751L11.5517 2.12464C11.7539 1.92529 12.0816 1.9253 12.2837 2.12466C12.4859 2.32402 12.4859 2.64724 12.2837 2.8466L2.09276 12.897C0.682594 14.2878 0.682594 16.5451 2.09322 17.9359C3.50397 19.3268 5.7917 19.3267 7.20185 17.9359L7.56785 18.2969L7.20186 17.9359L19.9487 5.3647C20.9556 4.37163 20.9557 2.76011 19.9487 1.7664C18.9407 0.772253 17.3063 0.772764 16.2993 1.76632L16.2992 1.76641L5.92608 11.9965C5.72394 12.1959 5.39621 12.1959 5.19408 11.9965C4.99195 11.7972 4.99196 11.4739 5.1941 11.2746L15.5672 1.04454Z" fill="#212121"/>
</svg>
