<svg width="24" height="23" viewBox="0 0 24 23" fill="none" xmlns="http://www.w3.org/2000/svg">
<path d="M22.6875 8.14062L16.4141 7.23828L13.5781 1.52344C13.1055 0.535156 11.6445 0.492188 11.1289 1.52344L8.33594 7.23828L2.01953 8.14062C0.902344 8.3125 0.472656 9.6875 1.28906 10.5039L5.80078 14.9297L4.72656 21.1602C4.55469 22.2773 5.75781 23.1367 6.74609 22.6211L12.375 19.6562L17.9609 22.6211C18.9492 23.1367 20.1523 22.2773 19.9805 21.1602L18.9062 14.9297L23.418 10.5039C24.2344 9.6875 23.8047 8.3125 22.6875 8.14062ZM17.4023 14.4141L18.6055 21.375L12.375 18.1094L6.10156 21.375L7.30469 14.4141L2.23438 9.51562L9.23828 8.48438L12.375 2.125L15.4688 8.48438L22.4727 9.51562L17.4023 14.4141Z" fill="#212121"/>
</svg>
